<?xml version="1.0" standalone="no"?>
<!DOCTYPE svg PUBLIC "-//W3C//DTD SVG 20010904//EN"
 "http://www.w3.org/TR/2001/REC-SVG-20010904/DTD/svg10.dtd">
<svg version="1.0" xmlns="http://www.w3.org/2000/svg"
 width="120.000000pt" height="119.000000pt" viewBox="0 0 120.000000 119.000000"
 preserveAspectRatio="xMidYMid meet">

<g transform="translate(0.000000,119.000000) scale(0.100000,-0.100000)"
fill="#000000" stroke="none">
<path d="M0 982 c0 -148 3 -211 12 -220 9 -9 9 -12 0 -12 -9 0 -12 -34 -12
-121 0 -104 3 -124 18 -136 16 -14 16 -14 0 -9 -28 9 -25 -80 3 -110 12 -12
18 -27 14 -33 -9 -16 -25 -13 -19 3 3 8 1 17 -5 21 -16 9 -14 -44 3 -60 8 -8
23 -11 37 -8 23 5 24 5 4 -10 -12 -10 -24 -12 -31 -6 -6 5 -14 6 -17 2 -4 -3
-7 -69 -7 -145 l0 -139 298 1 c164 1 304 5 312 10 9 5 19 5 26 -1 7 -5 62 -8
125 -7 l114 3 -43 28 -43 28 18 32 c25 43 105 84 137 69 17 -8 27 -7 36 1 6 7
-3 -12 -21 -42 -37 -60 -68 -85 -93 -75 -22 8 -20 -9 2 -29 16 -14 43 -17 175
-17 l157 0 0 116 c0 85 -3 113 -12 108 -8 -5 -9 -2 -3 12 5 10 10 52 11 91 2
69 1 72 -18 62 -11 -6 -22 -8 -26 -5 -7 8 30 36 40 30 3 -2 7 124 7 281 1 314
1 311 -59 255 -18 -16 -40 -30 -49 -29 -13 0 -13 2 4 12 11 7 39 31 62 54 l43
42 0 81 0 80 -600 0 -600 0 0 -208z m698 124 c7 -4 12 -22 12 -39 0 -24 3 -28
10 -17 8 12 10 9 10 -13 0 -16 4 -26 10 -22 7 4 7 -2 1 -18 -8 -19 -6 -29 8
-41 19 -17 46 -22 36 -6 -4 6 1 7 11 3 16 -6 15 -8 -5 -17 -16 -7 -28 -6 -42
2 -11 7 -19 8 -19 2 0 -5 5 -10 10 -10 6 0 10 -12 10 -26 0 -24 3 -26 28 -21
51 10 122 46 122 62 0 8 6 15 14 15 8 0 28 17 45 37 17 20 33 34 36 32 3 -3
-11 -22 -30 -42 -20 -21 -33 -42 -30 -47 3 -6 -2 -10 -13 -10 -10 0 -31 -11
-45 -24 -14 -13 -43 -27 -64 -31 -50 -8 -78 -25 -44 -25 19 0 22 -3 13 -12 -9
-9 -7 -17 10 -35 28 -30 38 -29 73 7 22 23 37 30 62 28 18 -1 33 -6 33 -10 0
-4 12 -8 28 -8 21 0 24 -2 12 -10 -13 -8 -12 -10 3 -10 10 0 15 -4 12 -10 -10
-17 -55 -12 -55 6 0 9 -6 14 -12 11 -14 -5 -12 -40 3 -45 15 -6 10 -86 -7
-110 -9 -13 -14 -26 -11 -29 3 -2 13 9 21 26 9 17 26 36 38 42 19 10 20 9 13
-12 -4 -13 -7 -43 -6 -66 1 -33 -2 -43 -14 -43 -24 0 -30 -29 -10 -44 21 -15
8 -28 -29 -30 -33 -2 -30 -31 7 -59 l34 -26 1 27 c0 54 2 62 17 62 8 0 15 -5
15 -11 0 -6 9 -8 20 -4 11 4 20 2 20 -4 0 -17 27 -13 34 6 5 13 9 14 19 3 9
-10 9 -13 0 -17 -7 -3 -13 -14 -13 -24 0 -11 5 -17 10 -14 14 9 12 -19 -2 -33
-9 -9 -7 -12 13 -13 l24 0 -23 -10 c-13 -5 -21 -13 -17 -19 4 -6 -1 -7 -11 -3
-11 4 -15 2 -11 -4 10 -17 -15 -41 -78 -74 -33 -17 -63 -36 -66 -42 -9 -13
-74 -1 -88 17 -11 14 19 140 39 160 14 14 13 8 -10 -64 -29 -90 -27 -93 23
-67 29 15 43 30 45 46 2 13 10 31 18 38 12 12 11 18 -2 39 -9 13 -19 24 -23
25 -3 0 -16 2 -28 3 -13 2 -26 6 -30 11 -5 4 3 4 17 0 23 -7 23 -7 -6 23 -17
17 -31 36 -31 44 -1 7 -6 27 -11 45 -6 19 -7 33 -1 35 5 2 12 26 15 53 7 59
-10 84 -45 66 -22 -12 -36 -45 -26 -61 3 -6 -2 -13 -12 -16 -48 -15 -86 -41
-98 -68 l-14 -31 6 35 c6 33 5 34 -13 20 -15 -11 -16 -11 -6 0 6 8 12 38 12
67 0 54 6 63 28 41 18 -18 27 -1 16 29 -12 35 -30 40 -39 11 -6 -19 -8 -20
-12 -5 -2 9 -12 17 -21 17 -10 0 -23 9 -30 20 -7 11 -19 20 -27 20 -12 0 -13
-3 -3 -19 10 -17 8 -23 -10 -38 -11 -10 -23 -31 -24 -48 -3 -26 0 -30 20 -27
16 2 22 -2 22 -17 0 -14 -11 -23 -36 -31 l-36 -12 7 -49 c6 -40 4 -49 -8 -49
-21 0 -32 -19 -18 -33 6 -6 11 -15 11 -21 0 -5 -6 -2 -13 8 -8 11 -30 18 -62
21 -50 4 -50 4 -19 -9 52 -23 48 -34 -6 -23 -28 5 -50 15 -50 22 0 12 -21 25
-41 25 -12 0 -12 -57 1 -65 16 -10 12 -23 -11 -36 -17 -8 -32 -8 -61 0 -44 14
-44 14 -1 113 17 39 30 55 39 51 10 -4 14 4 14 32 0 54 -15 75 -54 75 -19 0
-39 7 -46 15 -10 12 -15 13 -21 4 -4 -7 -14 -9 -25 -4 -16 6 -12 9 19 19 22 6
36 14 31 18 -11 12 16 38 40 38 27 0 46 -18 46 -43 0 -14 -3 -17 -12 -9 -9 7
-17 6 -26 -4 -13 -14 -12 -15 22 -18 12 0 24 -14 32 -36 7 -19 13 -27 13 -17
1 9 7 16 14 15 6 -2 11 2 10 8 -1 7 7 14 17 17 24 6 25 -6 4 -37 -10 -16 -12
-26 -5 -31 6 -3 11 -27 12 -53 1 -44 2 -46 12 -19 6 15 13 27 17 27 3 0 13
-12 22 -27 21 -34 24 -13 3 26 -13 26 -13 30 1 42 8 7 13 18 10 25 -7 18 17
35 45 32 18 -2 25 2 27 20 2 12 -1 22 -7 22 -6 0 -8 -7 -5 -15 4 -8 1 -15 -6
-15 -21 0 -50 21 -50 36 0 9 -9 28 -21 42 l-20 27 25 8 c15 5 24 13 20 18 -3
5 5 9 17 9 12 0 19 3 16 7 -4 3 1 12 10 19 15 10 11 13 -30 19 -31 5 -58 3
-74 -4 -14 -7 -27 -10 -28 -9 -1 2 -8 13 -14 25 -10 19 -8 25 8 39 19 17 19
17 -2 36 l-22 19 25 -15 c14 -8 35 -14 47 -13 19 1 20 3 9 17 -25 29 -28 40
-11 40 9 0 14 -4 11 -8 -9 -14 40 -51 55 -41 20 12 24 69 5 69 -8 0 -18 -4
-21 -10 -3 -5 -12 -10 -18 -9 -9 0 -8 2 1 6 16 6 36 43 23 43 -5 0 -17 -7 -26
-16 -9 -9 -18 -15 -20 -12 -7 7 10 24 47 47 34 20 37 21 32 4 -3 -10 4 -1 17
19 12 20 32 39 43 41 33 6 142 1 154 -7z m362 0 c0 -8 -7 -16 -15 -20 -13 -4
-14 -2 -5 14 13 23 20 26 20 6z m-990 -46 c4 0 10 -7 14 -15 9 -24 -27 -18
-43 6 -11 19 -11 21 4 15 9 -3 20 -6 25 -6z m218 -59 c3 -8 -1 -12 -9 -9 -7 2
-15 10 -17 17 -3 8 1 12 9 9 7 -2 15 -10 17 -17z m-53 -71 c3 -5 -1 -10 -9
-10 -8 0 -18 5 -21 10 -3 6 1 10 9 10 8 0 18 -4 21 -10z m-139 -47 c-3 -4 -17
-8 -29 -10 -17 -2 -19 -1 -7 7 17 11 47 14 36 3z m904 -23 c-6 -11 -15 -20
-20 -20 -14 0 -12 6 6 24 21 22 27 20 14 -4z m-37 3 c-7 -2 -19 -2 -25 0 -7 3
-2 5 12 5 14 0 19 -2 13 -5z m-823 -43 c0 -5 -4 -10 -10 -10 -5 0 -10 5 -10
10 0 6 5 10 10 10 6 0 10 -4 10 -10z m158 -20 c22 -7 20 -8 -17 -7 -23 1 -38
3 -32 5 6 2 8 9 5 14 -5 7 -2 8 5 3 7 -4 25 -11 39 -15z m807 10 c-3 -5 -11
-10 -16 -10 -6 0 -7 5 -4 10 3 6 11 10 16 10 6 0 7 -4 4 -10z m-1030 -20 c3
-5 2 -10 -4 -10 -5 0 -13 5 -16 10 -3 6 -2 10 4 10 5 0 13 -4 16 -10z m921
-48 c-17 -16 -18 -16 -5 5 7 12 15 20 18 17 3 -2 -3 -12 -13 -22z m114 8 c0
-5 -7 -10 -15 -10 -8 0 -15 5 -15 10 0 6 7 10 15 10 8 0 15 -4 15 -10z m-935
-10 c3 -5 2 -10 -4 -10 -5 0 -13 5 -16 10 -3 6 -2 10 4 10 5 0 13 -4 16 -10z
m211 -16 c-23 -16 -14 -19 14 -4 13 7 19 6 23 -4 11 -27 -28 -36 -63 -14 -18
12 -18 13 8 29 32 19 46 14 18 -7z m-318 -27 c7 -8 7 -18 2 -27 -8 -13 -11
-13 -26 2 -9 9 -13 21 -10 27 9 15 21 14 34 -2z m535 -24 c-7 -2 -21 -2 -30 0
-10 3 -4 5 12 5 17 0 24 -2 18 -5z m-388 -23 c3 -5 2 -10 -4 -10 -5 0 -13 5
-16 10 -3 6 -2 10 4 10 5 0 13 -4 16 -10z m915 -34 c-12 -12 -40 0 -40 18 0
11 5 12 24 3 15 -7 21 -16 16 -21z m-970 8 c0 -17 -22 -14 -28 4 -2 7 3 12 12
12 9 0 16 -7 16 -16z m900 -13 c14 -27 13 -31 -10 -31 -15 0 -20 7 -20 25 0
30 15 33 30 6z m-910 -25 c0 -2 -8 -10 -17 -17 -16 -13 -17 -12 -4 4 13 16 21
21 21 13z m488 -31 c7 -15 8 -27 2 -30 -13 -8 -13 -75 0 -75 6 0 10 5 10 12 0
6 3 9 6 5 7 -7 -42 -117 -52 -117 -3 0 -4 6 -1 13 4 10 -1 13 -16 10 -21 -4
-22 0 -25 91 -2 52 -1 100 3 106 3 5 19 10 34 10 20 0 31 -7 39 -25z m505 17
c19 10 19 9 -2 -17 -15 -20 -18 -32 -11 -39 5 -5 10 -17 10 -25 -1 -13 -4 -12
-16 4 -8 11 -13 30 -11 43 3 14 -1 22 -10 22 -8 0 -11 5 -7 11 4 7 9 8 17 0 7
-7 16 -7 30 1z m-956 -30 c-15 -15 -27 -37 -27 -48 0 -26 -25 -27 -47 -1 -10
11 -12 17 -5 13 7 -4 29 7 55 28 51 43 60 46 24 8z m568 -10 c-3 -3 -11 0 -18
7 -9 10 -8 11 6 5 10 -3 15 -9 12 -12z m285 -6 c0 -3 -4 -8 -10 -11 -5 -3 -10
-1 -10 4 0 6 5 11 10 11 6 0 10 -2 10 -4z m-975 -42 c-8 -20 -15 -39 -15 -42
0 -3 -3 -3 -6 0 -6 7 22 78 31 78 3 0 -2 -16 -10 -36z m141 -19 c-4 -19 -11
-35 -16 -35 -13 0 -13 22 0 56 14 36 24 23 16 -21z m624 20 c13 -14 19 -25 14
-25 -12 0 -59 50 -47 50 5 0 20 -11 33 -25z m-670 -103 c9 -14 10 -12 5 11 -8
38 7 34 62 -19 27 -25 60 -54 74 -64 25 -19 25 -19 25 3 -1 30 30 34 37 5 4
-13 2 -25 -3 -26 -6 -2 -17 -10 -24 -18 -16 -15 -40 -17 -109 -8 -31 5 -44 11
-41 19 3 7 1 16 -5 19 -6 4 -8 14 -5 24 4 11 3 13 -3 6 -22 -30 -83 35 -69 73
7 17 39 2 56 -25z m214 -6 c-3 -7 -23 -20 -44 -29 -34 -13 -41 -13 -51 -1 -9
11 -6 14 17 14 16 1 40 7 54 15 31 18 30 18 24 1z m400 -32 c17 -16 13 -34 -7
-34 -7 0 -6 4 3 10 12 8 12 10 -3 16 -9 3 -17 10 -17 15 0 13 6 11 24 -7z
m-317 0 c-3 -3 -12 -4 -19 -1 -8 3 -5 6 6 6 11 1 17 -2 13 -5z m483 -3 c0 -5
-7 -11 -15 -15 -15 -5 -20 5 -8 17 9 10 23 9 23 -2z m200 1 c0 -13 -12 -22
-22 -16 -10 6 -1 24 13 24 5 0 9 -4 9 -8z m15 -41 c-3 -6 -11 -11 -17 -11 -6
0 -6 6 2 15 14 17 26 13 15 -4z m15 -25 l-21 -21 18 32 c10 18 20 28 22 22 2
-6 -6 -21 -19 -33z m-570 30 c0 -2 -7 -9 -15 -16 -13 -11 -14 -10 -9 4 5 14
24 23 24 12z m90 -32 c0 -2 -7 -4 -15 -4 -8 0 -15 4 -15 10 0 5 7 7 15 4 8 -4
15 -8 15 -10z m-660 -18 c0 -3 -4 -8 -10 -11 -5 -3 -10 -1 -10 4 0 6 5 11 10
11 6 0 10 -2 10 -4z m73 -26 c30 -35 60 -111 55 -136 -3 -13 -11 -18 -26 -17
-16 2 -21 -1 -16 -10 4 -7 3 -9 -2 -4 -5 5 -9 12 -9 15 0 4 -12 27 -27 52 -58
100 -39 177 25 100z m77 14 c0 -9 -7 -14 -17 -12 -25 5 -28 28 -4 28 12 0 21
-6 21 -16z m555 6 c3 -5 2 -10 -4 -10 -5 0 -13 5 -16 10 -3 6 -2 10 4 10 5 0
13 -4 16 -10z m405 5 c0 -11 -63 -36 -77 -30 -22 8 -11 15 27 20 18 3 35 7 38
10 7 6 12 7 12 0z m-590 -42 c-11 -17 -11 -17 -6 0 3 10 6 24 7 30 0 9 2 9 5
0 3 -7 0 -20 -6 -30z m-214 2 c9 -14 13 -32 10 -41 -4 -11 1 -10 24 6 17 12
28 15 25 8 -9 -22 -73 -58 -104 -58 -36 0 -91 20 -73 27 6 3 12 14 12 26 0 55
76 78 106 32z m184 -4 c0 -6 -9 -9 -19 -8 -11 0 -17 5 -15 9 7 11 34 10 34 -1z
m545 -51 c17 -7 14 -9 -13 -9 -20 -1 -31 3 -27 9 7 12 13 12 40 0z m-320 -20
c10 -11 15 -23 10 -28 -4 -4 -10 -1 -12 6 -3 6 -11 12 -19 12 -8 0 -14 7 -14
15 0 21 13 19 35 -5z m433 1 c3 -10 -2 -12 -21 -7 -22 5 -29 1 -41 -21 l-15
-28 -1 31 c0 17 3 34 7 38 12 12 66 2 71 -13z m-648 -16 c0 -9 -9 -15 -21 -15
-18 0 -19 2 -9 15 7 8 16 15 21 15 5 0 9 -7 9 -15z m50 -35 c-19 -13 -30 -13
-30 0 0 6 10 10 23 10 18 0 19 -2 7 -10z m440 -5 c-7 -8 -17 -15 -23 -15 -6 0
-2 7 9 15 25 19 30 19 14 0z m-680 -28 c34 -16 34 -17 7 -14 -16 2 -32 8 -36
15 -5 8 -17 9 -44 1 -29 -8 -40 -7 -50 3 -20 20 79 16 123 -5z m221 -3 c11
-13 9 -14 -14 -9 -18 5 -36 2 -53 -10 -14 -9 -33 -15 -42 -13 -12 2 -5 10 23
25 48 26 68 28 86 7z m219 1 c0 -2 -9 -9 -20 -15 -12 -6 -20 -7 -20 -1 0 5 8
12 18 14 9 3 18 5 20 6 1 0 2 -1 2 -4z m-639 -22 c13 -16 12 -17 -3 -4 -17 13
-22 21 -14 21 2 0 10 -8 17 -17z"/>
<path d="M460 903 c-9 -2 -21 -12 -28 -23 -11 -19 -9 -20 27 -20 33 0 38 3 37
22 -1 22 -11 28 -36 21z"/>
<path d="M670 809 c-13 -9 -12 -10 2 -5 10 3 38 -3 63 -14 45 -19 62 -15 27 6
-29 18 -76 25 -92 13z"/>
<path d="M100 116 c0 -2 8 -10 18 -17 15 -13 16 -12 3 4 -13 16 -21 21 -21 13z"/>
</g>
</svg>
